<?xml version="1.0" encoding="UTF-8" standalone="no"?>
<!-- Created with Inkscape (http://www.inkscape.org/) -->

<svg
   width="9.2846985mm"
   height="6.3832302mm"
   viewBox="0 0 9.2846986 6.3832302"
   version="1.1"
   id="svg746"
   xml:space="preserve"
   inkscape:version="1.2 (dc2aeda, 2022-05-15)"
   sodipodi:docname="cloud-arrow-up-me.svg"
   xmlns:inkscape="http://www.inkscape.org/namespaces/inkscape"
   xmlns:sodipodi="http://sodipodi.sourceforge.net/DTD/sodipodi-0.dtd"
   xmlns="http://www.w3.org/2000/svg"
   xmlns:svg="http://www.w3.org/2000/svg"><sodipodi:namedview
     id="namedview748"
     pagecolor="#505050"
     bordercolor="#eeeeee"
     borderopacity="1"
     inkscape:showpageshadow="0"
     inkscape:pageopacity="0"
     inkscape:pagecheckerboard="0"
     inkscape:deskcolor="#505050"
     inkscape:document-units="mm"
     showgrid="false"
     inkscape:zoom="2.3786088"
     inkscape:cx="16.816553"
     inkscape:cy="37.627036"
     inkscape:window-width="769"
     inkscape:window-height="600"
     inkscape:window-x="383"
     inkscape:window-y="134"
     inkscape:window-maximized="0"
     inkscape:current-layer="layer1" /><defs
     id="defs743" /><g
     inkscape:label="Layer 1"
     inkscape:groupmode="layer"
     id="layer1"
     transform="translate(-108.76624,-28.270249)"><g
       style="fill:currentColor"
       id="g885"
       transform="matrix(0.58029364,0,0,0.58029364,108.76624,27.109662)"><path
         fill-rule="evenodd"
         d="m 7.646,5.146 a 0.5,0.5 0 0 1 0.708,0 l 2,2 A 0.5006316,0.5006316 0 0 1 9.646,7.854 L 8.5,6.707 V 10.5 a 0.5,0.5 0 0 1 -1,0 V 6.707 L 6.354,7.854 A 0.5006316,0.5006316 0 1 1 5.646,7.146 Z"
         id="path881" /><path
         d="M 4.406,3.342 A 5.53,5.53 0 0 1 8,2 c 2.69,0 4.923,2 5.166,4.579 C 14.758,6.804 16,8.137 16,9.773 16,11.569 14.502,13 12.687,13 H 3.781 C 1.708,13 0,11.366 0,9.318 0,7.555 1.266,6.095 2.942,5.725 3.085,4.862 3.64,4.002 4.406,3.342 Z M 5.059,4.099 C 4.302,4.752 3.906,5.539 3.906,6.155 V 6.603 L 3.461,6.652 C 2.064,6.805 1,7.952 1,9.318 1,10.785 2.23,12 3.781,12 h 8.906 C 13.98,12 15,10.988 15,9.773 15,8.557 13.98,7.545 12.687,7.545 h -0.5 v -0.5 C 12.188,4.825 10.328,3 8,3 A 4.53,4.53 0 0 0 5.059,4.1 Z"
         id="path883" /></g></g></svg>
