<?xml version="1.0" encoding="UTF-8" standalone="no"?>
<!-- Created with Inkscape (http://www.inkscape.org/) -->

<svg
   width="397.46021mm"
   height="48.529076mm"
   viewBox="0 0 397.46021 48.529076"
   version="1.1"
   id="svg1350"
   xmlns="http://www.w3.org/2000/svg"
   xmlns:svg="http://www.w3.org/2000/svg">
  <defs
     id="defs1347" />
  <g
     id="layer1"
     transform="translate(66.590262,-65.087154)">
    <path
       style="fill:#ffffff;stroke-width:0.140296"
       d="m -24.922186,113.1265 c 0,-0.26936 -0.285442,-6.02368 -0.634319,-12.7874 -0.348862,-6.7637 -0.610208,-12.32174 -0.580759,-12.351189 0.08518,-0.0852 3.208462,0.22204 5.35383,0.526661 14.2273538,2.020104 23.1672162,7.332927 22.2214107,13.205848 -0.74143886,4.60392 -8.1181451,8.88825 -18.6438517,10.82819 -1.671434,0.30806 -7.027691,1.06762 -7.528568,1.06762 -0.120939,0 -0.187743,-0.17426 -0.187743,-0.48973 z m -18.799736,0.12328 c -9.220548,-1.23494 -16.646556,-3.96054 -20.394957,-7.48565 -1.654574,-1.55602 -2.473383,-3.19641 -2.473383,-4.95515 0,-1.727829 0.72642,-3.196246 2.397501,-4.846404 4.487217,-4.431024 15.762588,-7.736815 27.684664,-8.116767 2.371515,-0.07555 2.78367,-0.05906 2.723006,0.108763 -0.0393,0.10881 -1.896594,5.894545 -4.127298,12.857188 -2.230705,6.96264 -4.118958,12.65395 -4.196117,12.64734 -0.07718,-0.007 -0.803202,-0.10081 -1.613416,-0.20932 z M 26.42636,92.571748 V 76.297336 l 14.415474,0.0046 c 16.013099,0.0054 15.826348,-0.0039 17.66478,0.904474 1.136754,0.561821 1.865892,1.295777 2.371871,2.387597 0.529396,1.142338 0.65399,2.31355 0.600737,5.646694 l -0.0489,3.058229 -0.457324,0.928631 c -0.548771,1.114332 -1.295609,1.823982 -2.525005,2.399295 l -0.912488,0.427001 0.858657,0.389787 c 1.764163,0.800814 2.914413,2.341716 3.237221,4.336688 0.190521,1.177438 0.190775,5.556008 0,6.729508 -0.387472,2.38822 -2.126619,4.04648 -5.021539,4.78803 -1.796158,0.46009 -4.491316,0.54372 -17.592276,0.54588 l -12.59124,0.002 z m 26.713884,9.540162 c 0.224542,-0.11575 0.540213,-0.38856 0.701484,-0.60625 l 0.293206,-0.3958 0.04857,-2.041169 c 0.07072,-2.970734 -0.191576,-3.653246 -1.521698,-3.959626 -0.399283,-0.09197 -3.89302,-0.146677 -9.505093,-0.14884 l -8.873754,-0.0031 v 3.72173 3.721725 l 9.224497,-0.0389 c 7.870973,-0.0332 9.284405,-0.0698 9.632777,-0.24939 z m -0.082,-13.441666 c 0.91611,-0.488987 1.041844,-0.916611 0.984083,-3.346961 l -0.04767,-2.006144 -0.420889,-0.418466 C 52.739031,82.068729 52.405893,82.043279 42.903537,82.083481 l -8.5504,0.03618 -0.03755,3.476274 -0.03754,3.476274 9.086667,-0.03898 9.086658,-0.03898 z m 13.099222,19.862386 c 0.111428,-0.17481 4.26415,-7.50024 9.228305,-16.278769 l 9.025742,-15.960944 3.798555,0.03727 3.798559,0.03727 9.024543,15.713213 c 4.96352,8.64227 9.14883,15.94996 9.3007,16.23932 l 0.27613,0.52612 -4.52741,-0.002 -4.52741,-0.002 -1.907041,-3.47093 -1.907023,-3.47093 -9.948035,-0.032 -9.948025,-0.032 -1.82791,3.46924 -1.827895,3.46923 -4.117173,0.0372 -4.117169,0.0372 0.202557,-0.31781 z M 94.189604,95.39741 c 0,-0.213286 -6.115332,-11.691745 -6.240547,-11.713507 -0.153933,-0.02676 -6.525442,11.581869 -6.436147,11.726376 0.09219,0.149175 12.676694,0.136384 12.676694,-0.01292 z M 115.65497,92.571748 V 76.297336 h 2.78628 2.78626 l 11.48891,9.620025 c 6.31891,5.291012 12.04446,10.128116 12.72344,10.749135 0.67899,0.621019 1.25636,1.105943 1.28303,1.077599 0.0267,-0.02832 -0.004,-0.777559 -0.069,-1.664933 -0.0646,-0.887383 -0.12112,-5.701301 -0.12558,-10.697627 l -0.008,-9.084199 h 3.64772 3.64771 v 16.274412 16.274392 h -2.7274 -2.72741 L 136.25182,98.65822 C 129.5919,93.054869 123.85876,88.19569 123.51153,87.860055 l -0.63133,-0.610255 0.0438,10.79818 0.0437,10.79816 h -3.65635 -3.65636 z m 54.1545,16.132272 c -3.84651,-0.2605 -5.43011,-1.3125 -6.2737,-4.16771 l -0.23961,-0.81099 -0.047,-10.562341 c -0.0399,-8.975997 -0.0149,-10.748299 0.16675,-11.800477 0.39689,-2.299857 1.08488,-3.382278 2.63325,-4.142929 1.89313,-0.930009 2.09528,-0.940038 17.84298,-0.885629 l 13.90641,0.04809 0.89886,0.241778 c 1.15039,0.309422 2.45064,1.002547 2.91878,1.555887 0.55127,0.651632 1.01023,1.758398 1.24471,3.001509 0.17813,0.944528 0.20301,2.763021 0.16285,11.899671 l -0.0474,10.784781 -0.21954,0.70148 c -0.55554,1.77514 -1.22232,2.65382 -2.4946,3.28742 -1.06786,0.53177 -1.8514,0.70245 -3.91991,0.85385 -2.03668,0.14907 -24.3214,0.1454 -26.53287,-0.004 z m 25.21926,-16.307644 0.0361,-9.785697 h -11.92616 -11.92616 v 9.727242 c 0,5.349967 0.0424,9.769669 0.0943,9.821549 0.0518,0.0518 5.40243,0.0782 11.89012,0.0585 l 11.79581,-0.0359 z m 17.71149,0.175372 V 76.297336 l 14.41548,0.0046 c 15.74673,0.0054 15.77149,0.007 17.48942,0.8104 1.66088,0.777224 2.57411,1.940834 2.9628,3.775153 0.25138,1.186408 0.29255,9.762192 0.053,11.06193 -0.32378,1.757316 -1.36551,3.19536 -2.8294,3.905807 -1.27336,0.61798 -2.37697,0.813501 -5.1224,0.907499 l -2.56346,0.08776 7.02754,5.752155 c 3.86516,3.16368 7.16526,5.86124 7.33357,5.99455 l 0.30599,0.24241 -5.8487,0.003 -5.84868,0.003 -6.42726,-6.0302 -6.42727,-6.030207 -3.33203,-0.003 -3.33204,-0.003 v 6.032737 6.03277 h -3.92832 -3.92829 z m 26.26121,-2.128469 c 0.86262,-0.391374 1.00219,-0.837672 1.0695,-3.420163 0.0904,-3.467233 -0.16407,-4.2293 -1.51614,-4.540745 -0.39838,-0.09176 -3.82783,-0.146686 -9.29465,-0.148841 l -8.66332,-0.0031 v 4.115362 c 0,2.263445 0.0454,4.160866 0.10112,4.216473 0.0555,0.05563 4.08037,0.08191 8.94391,0.05843 l 8.84279,-0.04264 z m 29.68278,5.320214 -0.0358,-13.082658 -7.3305,-0.03633 -7.33051,-0.03626 V 79.452823 76.2974 h 18.7296 18.72959 v 3.156675 3.15666 H 284.081 276.71543 V 95.728473 108.8462 h -3.99772 -3.99774 z m 29.21603,-3.191745 V 76.297336 h 16.2744 16.27441 v 3.016394 3.016361 h -12.27596 -12.27594 v 3.226816 3.226824 h 7.576 7.57603 v 3.015166 3.015156 l -7.54094,0.03626 -7.54094,0.03626 v 3.647714 3.647703 l 12.45132,0.0359 12.45131,0.0359 v 3.29621 3.29621 H 314.38509 297.90024 Z M -26.585536,81.051011 c -0.173918,-3.424736 -0.386854,-7.599932 -0.47321,-9.278237 -0.08635,-1.678297 -0.196247,-3.051443 -0.244252,-3.051443 -0.04801,0 -1.374524,4.008412 -2.947855,8.907589 -1.573323,4.899184 -2.9044,8.978469 -2.957938,9.065089 -0.220872,0.357397 -7.713689,-0.758589 -11.562913,-1.722194 -3.097363,-0.775388 -5.31073,-1.529831 -7.318942,-2.494712 -2.056801,-0.988238 -3.184236,-1.731656 -4.407514,-2.906322 -1.213751,-1.165533 -1.58249,-1.905044 -1.651105,-3.311522 l -0.05321,-1.090311 0.391144,-0.803685 c 1.773381,-3.643795 9.431938,-6.874416 19.841549,-8.369786 8.596891,-1.234973 18.670479,-1.20971 27.9889609,0.07018 10.36004369,1.422942 18.373068,4.963623 19.6402393,8.678345 1.7816498,5.222915 -6.9165542,9.919636 -21.8179712,11.78093 -2.793575,0.348932 -5.754633,0.534356 -10.526078,0.659123 l -3.584718,0.09373 z"
       id="path774" />
  </g>
</svg>
